<svg xmlns="http://www.w3.org/2000/svg" width="800" height="512" viewBox="0 0 800 512" role="img"><defs>
    <linearGradient id="wood" x2="1" y2=".3"><stop stop-color="#bb8052"/><stop offset=".45" stop-color="#9b6140"/><stop offset="1" stop-color="#684333"/></linearGradient>
    <linearGradient id="brass" x2=".9" y2=".3"><stop stop-color="#ead29a"/><stop offset=".4" stop-color="#c99a50"/><stop offset="1" stop-color="#947044"/></linearGradient>
    <linearGradient id="glass" x2=".7" y2="1"><stop stop-color="#70969a"/><stop offset="1" stop-color="#365663"/></linearGradient>
    <linearGradient id="shade" x2=".7" y2=".8"><stop stop-color="#557779"/><stop offset=".55" stop-color="#355d60"/><stop offset="1" stop-color="#304b50"/></linearGradient>
  </defs><g transform="translate(0 0)"><g id="door-frame"><rect x="28" y="22" width="144" height="226" fill="#e8d5b0" /><rect x="44" y="36" width="112" height="212" fill="#684333" /><rect x="49" y="42" width="102" height="206" fill="url(#wood)" /><rect x="20" y="8" width="160" height="9" fill="#f4e7c9" /><rect x="24" y="17" width="152" height="8" fill="#e8d5b0" /><rect x="28" y="25" width="144" height="4" fill="#bba284" /><rect x="29" y="32" width="10" height="216" fill="#f4e7c9" /><rect x="161" y="32" width="10" height="216" fill="#c4b390" /><path d="M59 103V81C59 49 141 49 141 81V103Z" fill="#684333" /><path d="M64 98V82C64 57 136 57 136 82V98Z" fill="#637275" /><path d="M100 56V102M62 86H138M100 57L65 84M100 57L135 84" fill="none" stroke="#bb8052" stroke-width="4"/><rect x="60" y="111" width="80" height="53" fill="#684333" rx="1"/><rect x="65" y="116" width="70" height="44" fill="#9b6140" /><rect x="60" y="174" width="80" height="59" fill="#684333" /><rect x="65" y="180" width="70" height="47" fill="#9b6140" /><path d="M65 118L134 118" fill="none" stroke="#bb8052" stroke-width="1" stroke-linecap="round"/><path d="M65 182L134 182" fill="none" stroke="#bb8052" stroke-width="1" stroke-linecap="round"/><rect x="137" y="133" width="5" height="25" fill="url(#brass)" rx="2"/><circle cx="138" cy="136" r="4" fill="url(#brass)" /><path d="M138 140V149Q138 153 130 153" fill="none" stroke="#d7b46d" stroke-width="3" stroke-linecap="round"/><rect x="45" y="241" width="111" height="7" fill="#78614b" /></g></g><g transform="translate(200 0)"><rect x="22" y="14" width="156" height="228" fill="#e8d5b0" /><rect x="30" y="22" width="140" height="211" fill="#684333" /><rect x="35" y="27" width="130" height="201" fill="url(#glass)" /><path d="M35 172L66 121L83 142L103 99L136 155L165 123V228H35Z" fill="#314d5b" opacity=".58"/><path d="M44 28L111 28L44 106ZM165 58L165 99L96 178L69 178Z" fill="#dce6dc" opacity=".09"/><rect x="96" y="24" width="8" height="207" fill="#e8d5b0" /><rect x="32" y="119" width="136" height="7" fill="#e8d5b0" /><rect x="20" y="233" width="160" height="9" fill="#f4e7c9" /><path d="M38 29L38 225" fill="none" stroke="#d3ddd0" stroke-width="0.7" stroke-linecap="round"/><path d="M107 30L160 30" fill="none" stroke="#d3ddd0" stroke-width="0.7" stroke-linecap="round"/></g><g transform="translate(400 0)"><rect x="21" y="17" width="158" height="228" fill="url(#wood)" rx="2"/><rect x="31" y="28" width="138" height="207" fill="#684333" /><rect x="28" y="30" width="144" height="5" fill="#bb8052" /><rect x="28" y="35" width="144" height="3" fill="#9b6140" /><rect x="28" y="96" width="144" height="5" fill="#bb8052" /><rect x="28" y="101" width="144" height="3" fill="#9b6140" /><rect x="28" y="162" width="144" height="5" fill="#bb8052" /><rect x="28" y="167" width="144" height="3" fill="#9b6140" /><rect x="28" y="231" width="144" height="5" fill="#bb8052" /><rect x="28" y="236" width="144" height="3" fill="#9b6140" /><rect x="14" y="10" width="172" height="7" fill="#684333" /><rect x="18" y="17" width="164" height="6" fill="#bb8052" /><rect x="20" y="240" width="160" height="8" fill="#684333" /><g transform="rotate(0 35 95)"><rect x="35" y="45" width="9" height="50" fill="#853d45" rx="1"/><path d="M37 49L42 49" fill="none" stroke="#d6b886" stroke-width="0.8" stroke-linecap="round"/><path d="M37 90L42 90" fill="none" stroke="#d6b886" stroke-width="0.8" stroke-linecap="round"/></g><g transform="rotate(0 45 95)"><rect x="45" y="53" width="10" height="42" fill="#355d60" rx="1"/><path d="M47 57L53 57" fill="none" stroke="#d6b886" stroke-width="0.8" stroke-linecap="round"/><path d="M47 90L53 90" fill="none" stroke="#d6b886" stroke-width="0.8" stroke-linecap="round"/></g><g transform="rotate(0 56 95)"><rect x="56" y="46" width="12" height="49" fill="#c39854" rx="1"/><path d="M58 50L66 50" fill="none" stroke="#d6b886" stroke-width="0.8" stroke-linecap="round"/><path d="M58 90L66 90" fill="none" stroke="#d6b886" stroke-width="0.8" stroke-linecap="round"/></g><g transform="rotate(-9 72 95)"><rect x="72" y="53" width="9" height="42" fill="#687763" rx="1"/><path d="M74 57L79 57" fill="none" stroke="#d6b886" stroke-width="0.8" stroke-linecap="round"/><path d="M74 90L79 90" fill="none" stroke="#d6b886" stroke-width="0.8" stroke-linecap="round"/></g><g transform="rotate(0 90 95)"><rect x="90" y="65" width="9" height="30" fill="#9d7861" rx="1"/><path d="M92 69L97 69" fill="none" stroke="#d6b886" stroke-width="0.8" stroke-linecap="round"/><path d="M92 90L97 90" fill="none" stroke="#d6b886" stroke-width="0.8" stroke-linecap="round"/></g><path d="M118 93V63Q118 43 133 43Q148 43 148 63V93Z" fill="none" stroke="#c8a258" stroke-width="2"/><path d="M123 52L123 93" fill="none" stroke="#c8a258" stroke-width="0.8" stroke-linecap="round"/><path d="M130 52L130 93" fill="none" stroke="#c8a258" stroke-width="0.8" stroke-linecap="round"/><path d="M137 52L137 93" fill="none" stroke="#c8a258" stroke-width="0.8" stroke-linecap="round"/><path d="M144 52L144 93" fill="none" stroke="#c8a258" stroke-width="0.8" stroke-linecap="round"/><path d="M117 69L149 69" fill="none" stroke="#c8a258" stroke-width="1" stroke-linecap="round"/><path d="M129 78Q134 68 140 77L146 80L140 81Q136 87 129 82Z" fill="#f4e7c9" /><path d="M132 82L132 89" fill="none" stroke="#c99a50" stroke-width="1" stroke-linecap="round"/><circle cx="133" cy="40" r="3" fill="#c99a50" /><g transform="translate(47 141) rotate(-4)"><rect x="-7" y="-10" width="14" height="20" fill="#f1dfbb" rx="1" stroke="#9c7f60" stroke-width=".5"/><path d="M0 -5C-7 0 -5 5 0 2C5 5 7 0 0 -5M0 1L-2 5H2Z" fill="#743e43" /></g><g transform="translate(72 142) rotate(7)"><rect x="-7" y="-10" width="14" height="20" fill="#f1dfbb" rx="1" stroke="#9c7f60" stroke-width=".5"/><path d="M0 -5C-7 0 -5 5 0 2C5 5 7 0 0 -5M0 1L-2 5H2Z" fill="#743e43" /></g><path d="M113 134L116 151H143L146 134Z" fill="#343e42" /><rect x="109" y="149" width="40" height="5" fill="#283539" rx="2"/><g transform="rotate(0 38 230)"><rect x="38" y="176" width="10" height="54" fill="#73755b" rx="1"/><path d="M40 180L46 180" fill="none" stroke="#d6b886" stroke-width="0.8" stroke-linecap="round"/><path d="M40 225L46 225" fill="none" stroke="#d6b886" stroke-width="0.8" stroke-linecap="round"/></g><g transform="rotate(0 50 230)"><rect x="50" y="181" width="11" height="49" fill="#355d60" rx="1"/><path d="M52 185L59 185" fill="none" stroke="#d6b886" stroke-width="0.8" stroke-linecap="round"/><path d="M52 225L59 225" fill="none" stroke="#d6b886" stroke-width="0.8" stroke-linecap="round"/></g><g transform="rotate(0 64 230)"><rect x="64" y="177" width="9" height="53" fill="#853d45" rx="1"/><path d="M66 181L71 181" fill="none" stroke="#d6b886" stroke-width="0.8" stroke-linecap="round"/><path d="M66 225L71 225" fill="none" stroke="#d6b886" stroke-width="0.8" stroke-linecap="round"/></g><g transform="rotate(-6 77 230)"><rect x="77" y="189" width="10" height="41" fill="#ba8c56" rx="1"/><path d="M79 193L85 193" fill="none" stroke="#d6b886" stroke-width="0.8" stroke-linecap="round"/><path d="M79 225L85 225" fill="none" stroke="#d6b886" stroke-width="0.8" stroke-linecap="round"/></g><rect x="111" y="200" width="42" height="29" fill="url(#wood)" rx="2" stroke="#c29a61" stroke-width="1.5"/><path d="M114 210L151 210" fill="none" stroke="#c99a50" stroke-width="1" stroke-linecap="round"/><rect x="130" y="207" width="6" height="8" fill="url(#brass)" rx="1"/></g><g transform="translate(600 0)"><path d="M18 147L16 248H24L29 151ZM173 147L177 248H185L183 146Z" fill="url(#wood)" /><path d="M56 145L58 229H65L65 145ZM139 145L139 229H146L149 145Z" fill="#684333" /><rect x="20" y="149" width="165" height="13" fill="#684333" /><rect x="6" y="139" width="188" height="12" fill="url(#wood)" rx="2"/><path d="M34 137Q89 132 153 136L160 176Q139 179 121 173L107 181L80 173L46 179Z" fill="#853d45" /><path d="M38 139Q91 136 150 139L154 143L38 143Z" fill="#a25456" /><path d="M48 174Q65 168 81 171M119 170Q138 174 151 172" fill="none" stroke="#c4a259" stroke-width="1.5"/><path d="M49 174L49 179" fill="none" stroke="#c99a50" stroke-width="0.7" stroke-linecap="round"/><path d="M77 174L77 179" fill="none" stroke="#c99a50" stroke-width="0.7" stroke-linecap="round"/><path d="M119 174L119 179" fill="none" stroke="#c99a50" stroke-width="0.7" stroke-linecap="round"/><path d="M148 174L148 179" fill="none" stroke="#c99a50" stroke-width="0.7" stroke-linecap="round"/><g transform="translate(84 137) rotate(76)"><rect x="-7" y="-10" width="14" height="20" fill="#f1dfbb" rx="1" stroke="#9c7f60" stroke-width=".5"/><path d="M0 -5C-7 0 -5 5 0 2C5 5 7 0 0 -5M0 1L-2 5H2Z" fill="#743e43" /></g><g transform="translate(103 135) rotate(94)"><rect x="-7" y="-10" width="14" height="20" fill="#f1dfbb" rx="1" stroke="#9c7f60" stroke-width=".5"/><path d="M0 -5C-7 0 -5 5 0 2C5 5 7 0 0 -5M0 1L-2 5H2Z" fill="#743e43" /></g><path d="M137 107L140 130H164L167 107Z" fill="#343a3a" /><rect x="132" y="128" width="40" height="5" fill="#2f3738" rx="2"/><rect x="141" y="118" width="22" height="4" fill="#853d45" /><path d="M32 112L34 136H47L49 112Z" fill="url(#brass)" /><path d="M37 127L31 95" fill="none" stroke="#4c4c44" stroke-width="3" stroke-linecap="round"/><path d="M41 121Q49 95 64 90Q56 106 45 122Z" fill="#853d45" /></g><g transform="translate(0 256)"><rect x="94" y="48" width="10" height="192" fill="#3e4c4d" rx="3"/><rect x="93" y="52" width="3" height="175" fill="#68736b" /><path d="M77 42L83 78H116L123 42Z" fill="#34494b" /><path d="M85 47L89 72H111L116 47Z" fill="#e9bf70" /><path d="M92 49L94 71H101V49Z" fill="#f5d98b" /><path d="M73 42Q75 27 100 23Q125 27 127 42Z" fill="#34494b" /><path d="M80 34Q95 25 113 30" fill="none" stroke="#687b71" stroke-width="2"/><circle cx="100" cy="21" r="4" fill="#c99a50" /><rect x="78" y="77" width="44" height="5" fill="#34494b" rx="2"/><path d="M95 225L89 240H111L105 225Z" fill="#3e4c4d" /><rect x="76" y="239" width="48" height="9" fill="#34494b" rx="3"/><rect x="71" y="248" width="58" height="4" fill="#53625d" /><path d="M100 4L100 18" fill="none" stroke="#3e4c4d" stroke-width="3" stroke-linecap="round"/></g><g transform="translate(200 256)"><rect x="95" y="4" width="9" height="60" fill="#414b48" /><path d="M78 69Q85 61 100 61Q115 61 122 69L130 102H70Z" fill="url(#shade)" /><path d="M71 92Q48 117 18 131Q99 146 182 131Q151 116 129 92Z" fill="url(#shade)" /><path d="M23 131Q103 142 177 131" fill="none" stroke="#91a093" stroke-width="2"/><rect x="94" y="56" width="12" height="10" fill="url(#brass)" rx="3"/><circle cx="100" cy="136" r="10" fill="#edc879" /><path d="M94 136Q100 129 106 136" fill="none" stroke="#f6e3ad" stroke-width="2"/><path d="M75 95Q82 73 95 70" fill="none" stroke="#8da69a" stroke-width="2" opacity=".6"/></g><g transform="translate(400 256)"><rect x="24" y="132" width="152" height="107" fill="url(#wood)" rx="2"/><rect x="14" y="126" width="172" height="9" fill="#684333" rx="2"/><rect x="32" y="143" width="136" height="27" fill="#684333" rx="1"/><rect x="34" y="145" width="132" height="23" fill="#9b6140" /><path d="M36 146L165 146" fill="none" stroke="#bb8052" stroke-width="1" stroke-linecap="round"/><rect x="88" y="153" width="24" height="4" fill="url(#brass)" rx="2"/><rect x="32" y="174" width="136" height="27" fill="#684333" rx="1"/><rect x="34" y="176" width="132" height="23" fill="#9b6140" /><path d="M36 177L165 177" fill="none" stroke="#bb8052" stroke-width="1" stroke-linecap="round"/><rect x="88" y="184" width="24" height="4" fill="url(#brass)" rx="2"/><rect x="32" y="205" width="136" height="27" fill="#684333" rx="1"/><rect x="34" y="207" width="132" height="23" fill="#9b6140" /><path d="M36 208L165 208" fill="none" stroke="#bb8052" stroke-width="1" stroke-linecap="round"/><rect x="88" y="215" width="24" height="4" fill="url(#brass)" rx="2"/><rect x="29" y="238" width="12" height="10" fill="#684333" /><rect x="159" y="238" width="12" height="10" fill="#684333" /><path d="M41 125V114Q41 104 57 104Q73 104 73 114V125Z" fill="#9b6140" /><path d="M47 124V114Q47 109 57 109Q67 109 67 114V124Z" fill="#50453b" /><path d="M51 115L51 122" fill="none" stroke="#c99a50" stroke-width="1" stroke-linecap="round"/><path d="M55 115L55 122" fill="none" stroke="#c99a50" stroke-width="1" stroke-linecap="round"/><path d="M59 115L59 122" fill="none" stroke="#c99a50" stroke-width="1" stroke-linecap="round"/><path d="M63 115L63 122" fill="none" stroke="#c99a50" stroke-width="1" stroke-linecap="round"/><circle cx="68" cy="121" r="2" fill="#c99a50" /><g transform="rotate(0 92 126)"><rect x="92" y="119" width="50" height="7" fill="#355d60" rx="1"/><path d="M94 123L140 123" fill="none" stroke="#d6b886" stroke-width="0.8" stroke-linecap="round"/><path d="M94 121L140 121" fill="none" stroke="#d6b886" stroke-width="0.8" stroke-linecap="round"/></g><g transform="rotate(0 97 119)"><rect x="97" y="113" width="44" height="6" fill="#853d45" rx="1"/><path d="M99 117L139 117" fill="none" stroke="#d6b886" stroke-width="0.8" stroke-linecap="round"/><path d="M99 114L139 114" fill="none" stroke="#d6b886" stroke-width="0.8" stroke-linecap="round"/></g></g><g transform="translate(600 256)"><path d="M65 187L75 242Q101 254 128 242L138 187Z" fill="#a9654b" /><path d="M67 188L76 237Q80 244 89 246L80 188Z" fill="#c28660" /><path d="M64 186Q100 179 139 186L138 195Q98 201 65 195Z" fill="#bd805a" /><path d="M100 188Q95 133 112 76M104 154Q78 124 57 102M105 137Q133 99 155 82M100 166Q71 156 45 143M104 177Q138 151 160 126" fill="none" stroke="#66724c" stroke-width="4"/><path d="M112 79Q81 75 94 59Q124 56 112 79ZM112 98Q132 67 150 77Q158 101 112 98ZM94 125Q61 124 49 100Q76 84 94 125ZM107 138Q119 98 149 109Q151 134 107 138ZM98 163Q57 173 25 145Q45 124 98 163ZM115 173Q133 130 174 131Q180 166 115 173ZM99 112Q78 90 80 69Q100 63 106 103Z" fill="#64764c" /><path d="M95 120Q69 113 56 104M113 133Q129 117 143 115M107 167Q80 158 41 149M123 166Q147 145 166 139" fill="none" stroke="#899464" stroke-width="1.4"/></g></svg>
